<svg width="14" height="8" viewBox="0 0 14 8" fill="none" xmlns="http://www.w3.org/2000/svg">
<path d="M1 4.5C0.723858 4.5 0.5 4.27614 0.5 4C0.5 3.72386 0.723858 3.5 1 3.5L1 4.5ZM13.3536 3.64645C13.5488 3.84171 13.5488 4.15829 13.3536 4.35356L10.1716 7.53554C9.97631 7.7308 9.65973 7.7308 9.46447 7.53554C9.2692 7.34027 9.2692 7.02369 9.46447 6.82843L12.2929 4L9.46447 1.17157C9.2692 0.976312 9.2692 0.65973 9.46447 0.464468C9.65973 0.269205 9.97631 0.269205 10.1716 0.464468L13.3536 3.64645ZM1 3.5L13 3.5L13 4.5L1 4.5L1 3.5Z" fill="#252121"/>
</svg>