<?xml version="1.0" encoding="UTF-8"?>
<svg id="_Шар_2" data-name="Шар 2" xmlns="http://www.w3.org/2000/svg" viewBox="0 0 148.8 152">
  <defs>
    <style>
      .cls-1 {
        fill: #fff;
      }
    </style>
  </defs>
  <g id="Layer_1" data-name="Layer 1">
    <g>
      <path class="cls-1" d="m0,141.9l1.97,4.44,70.7-29.32,12.32,1.48,4.43,13.55-5.91,5.67c-2.22,1.97-2.96,5.17-1.72,8.13l2.46,6.16,40.89-16.01-2.22-5.91c-.99-2.96-3.7-4.68-6.9-4.68h-8.13l-4.43-10.59,10.84-5.42c3.45-1.72,4.93-5.67,3.7-9.12l-14.04-37.69c-1.48-3.94-5.67-5.67-9.61-4.44,0,0-.25,0-.25.25l-10.35,4.43-1.48-3.7,5.67-6.65c3.94-4.44,6.4-9.85,7.14-15.77l7.14-8.62c4.68-5.42,3.7-13.55-1.72-18.23-.99-.74-1.97-1.48-2.96-1.97-2.71-1.23-5.42-1.48-8.38-.74l-.74-2.22c-1.23-3.94-5.67-5.91-9.36-4.43L27.1,19.21c-3.94,1.48-5.91,5.67-4.43,9.36v.25l1.23,3.2c-6.41,2.96-9.36,10.35-7.15,16.75,1.72,4.93,6.16,8.38,11.33,9.11l11.58,1.23c4.68,3.45,10.35,5.67,16.01,6.16l8.13.74,1.48,3.7c-1.72.99-2.96,2.71-3.45,4.93l-1.72,8.38L0,107.41l1.72,4.68,34.49-13.79,8.38,25.13L0,141.9Zm118-10.35l.49,1.48-31.53,12.56-.74-1.48c-.25-.99,0-1.97.49-2.71l8.38-7.88,10.59-3.45h9.85c1.23,0,1.97.49,2.46,1.48Zm-15.52-5.91l-8.87,2.96-3.2-9.36c1.48.25,2.71,0,3.94-.74l4.19-1.97,3.94,9.11Zm-6.65-63.56c1.23-.49,2.71,0,3.2,1.23l1.97,5.17-12.07,3.94,1.48,4.68,12.07-3.94,2.96,7.88-11.58,3.94,1.48,4.68,11.82-3.94,2.96,7.88-11.33,3.7,1.48,4.68,11.58-3.94,1.23,3.2c.49,1.23,0,2.46-1.23,2.96l-19.46,9.61c-.49.25-.99.25-1.48.25l-16.75-1.97-9.12-27.34,1.72-9.12c.25-.74.74-1.48,1.48-1.72l27.59-11.82Zm-.25-49.76c3.94,1.72,5.91,6.41,4.19,10.59-.25.74-.74,1.23-1.23,1.97l-2.96,3.7c-.25-2.46-.74-4.68-1.48-7.14l-3.2-9.61c1.72-.25,3.2,0,4.68.49ZM21.68,47.54c-1.48-4.19.25-8.62,4.19-10.59l3.45,8.38c1.23,2.96,2.96,5.91,4.93,8.38l-5.17-.49c-3.45-.25-6.4-2.46-7.39-5.67Zm34.98,13.06c-10.1-.99-18.97-7.39-22.66-17l-6.4-16.26c-.49-1.23,0-2.71,1.23-3.2L80.8,5.42c.74-.25,1.23-.25,1.97,0,.49.25.99.74,1.23,1.48l5.42,16.26c2.96,9.11.99,18.97-5.17,26.11l-7.64,8.87,2.22,5.91-8.87,3.7-2.46-6.16-10.84-.99Zm-15.77,35.72l5.67-2.22,6.16,18.72,4.68-1.48-6.4-19.22,9.85-3.94,8.38,24.88-19.95,8.38-8.38-25.13Z"/>
      <path class="cls-1" d="m121.7,43.11v2.46h4.93v-2.46c0-6.9,5.42-12.32,12.32-12.32v-4.93c-6.9,0-12.32-5.42-12.32-12.32v-2.46h-4.93v2.46c0,6.9-5.42,12.32-12.32,12.32v4.93c6.9,0,12.32,5.42,12.32,12.32Zm2.46-20.69c1.48,2.46,3.45,4.44,5.91,5.91-2.46,1.48-4.43,3.45-5.91,5.91-1.48-2.46-3.45-4.44-5.91-5.91,2.46-1.48,4.43-3.45,5.91-5.91Z"/>
      <path class="cls-1" d="m13.3,92.38v2.46h4.93v-2.46c0-6.9,5.42-12.32,12.32-12.32v-4.93c-6.9,0-12.32-5.42-12.32-12.32v-2.46h-4.93v2.46c0,6.9-5.42,12.32-12.32,12.32v4.93c6.9,0,12.32,5.42,12.32,12.32Zm2.46-20.69c1.48,2.46,3.45,4.44,5.91,5.91-2.46,1.48-4.43,3.45-5.91,5.91-1.48-2.46-3.45-4.44-5.91-5.91,2.46-1.48,4.43-3.45,5.91-5.91Z"/>
      <path class="cls-1" d="m136.48,62.82v-2.46h-4.93v2.46c0,6.9-5.42,12.32-12.32,12.32v4.93c6.9,0,12.32,5.42,12.32,12.32v2.46h4.93v-2.46c0-6.9,5.42-12.32,12.32-12.32v-4.93c-6.9,0-12.32-5.42-12.32-12.32Zm-2.46,20.69c-1.48-2.46-3.45-4.44-5.91-5.91,2.46-1.48,4.43-3.45,5.91-5.91,1.48,2.46,3.45,4.44,5.91,5.91-2.46,1.48-4.43,3.45-5.91,5.91Z"/>
      <path class="cls-1" d="m73.17,43.85l3.45,3.45c13.55-13.55.99-34.24.25-34.98l-4.19,2.71c.25,0,11.33,17.98.49,28.82Z"/>
    </g>
  </g>
</svg>