<?xml version="1.0" encoding="UTF-8"?>
<svg id="_Шар_2" data-name="Шар 2" xmlns="http://www.w3.org/2000/svg" viewBox="0 0 99.07 92.98">
  <defs>
    <style>
      .cls-1 {
        fill: #fff;
      }
    </style>
  </defs>
  <g id="Layer_1" data-name="Layer 1">
    <g>
      <path class="cls-1" d="m13.4,58.16c-5.57,0-10.09-4.51-10.09-10.08,0-5.57,4.51-10.09,10.08-10.09,5.57,0,10.09,4.51,10.09,10.08h0c0,5.57-4.52,10.08-10.08,10.09Zm0-17.02c-3.83,0-6.94,3.11-6.94,6.94,0,3.83,3.11,6.94,6.94,6.94,3.83,0,6.94-3.11,6.94-6.94h0c0-3.83-3.11-6.93-6.94-6.94h0Z"/>
      <path class="cls-1" d="m16.75,92.98c-.87,0-1.57-.7-1.57-1.57v-17.89c0-.87.71-1.57,1.57-1.57.26,0,.52.07.75.19l6.58,3.56,10.38.46c.1,0,.2-.03.27-.1.07-.07.11-.17.11-.27,0-1.53-1.05-2.86-2.53-3.21l-9.03-2.16c-.31-.08-.6-.24-.81-.49l-3.77-4.25c-3.26-3.68-8.89-4.01-12.57-.74-1.9,1.69-2.99,4.11-2.99,6.65v19.82c0,.87-.7,1.57-1.57,1.57s-1.57-.7-1.57-1.57v-19.82c0-6.65,5.39-12.05,12.05-12.05,3.44,0,6.72,1.47,9.01,4.05l3.44,3.88,8.55,2.04c2.91.69,4.96,3.28,4.95,6.27,0,1.94-1.57,3.52-3.52,3.52-.05,0-.1,0-.15,0l-10.75-.48c-.24-.01-.47-.07-.68-.19l-4.58-2.47v15.25c0,.87-.7,1.57-1.57,1.57Z"/>
      <path class="cls-1" d="m85.67,58.16c-5.57,0-10.09-4.52-10.09-10.09,0-5.57,4.52-10.09,10.09-10.09,5.57,0,10.09,4.52,10.09,10.09h0c0,5.57-4.52,10.08-10.09,10.09Zm0-17.02c-3.83,0-6.94,3.11-6.94,6.94,0,3.83,3.11,6.94,6.94,6.94s6.94-3.11,6.94-6.94h0c0-3.83-3.11-6.93-6.94-6.94h0Z"/>
      <path class="cls-1" d="m97.5,92.98c-.87,0-1.57-.7-1.57-1.57v-19.82c0-4.92-3.99-8.9-8.9-8.9-2.54,0-4.96,1.09-6.65,2.99l-3.77,4.25c-.21.24-.5.41-.81.49l-9.03,2.16c-1.49.35-2.54,1.68-2.53,3.21,0,.2.16.37.37.37,0,0,.01,0,.02,0l10.38-.46,6.58-3.56c.76-.41,1.72-.13,2.13.64.12.23.19.49.19.75v17.89c0,.87-.7,1.57-1.57,1.57s-1.57-.7-1.57-1.57v-15.25l-4.58,2.47c-.21.11-.44.18-.68.19l-10.74.48c-1.94.09-3.58-1.42-3.67-3.36,0-.05,0-.1,0-.15,0-2.99,2.04-5.58,4.95-6.27l8.55-2.04,3.44-3.88c4.42-4.97,12.03-5.43,17.01-1.01,2.57,2.29,4.05,5.56,4.05,9.01v19.82c0,.87-.7,1.57-1.57,1.57h0Z"/>
      <path class="cls-1" d="m70.35,42.9c-.33,0-.65-.1-.91-.29l-12.22-8.73h-16.38c-2.5,0-4.53-2.03-4.54-4.53V4.53c0-2.5,2.03-4.53,4.54-4.53h36.74c2.5,0,4.53,2.03,4.54,4.53v24.8c0,2.5-2.03,4.53-4.54,4.54h-5.64v7.45c0,.87-.7,1.57-1.57,1.57h0ZM40.83,3.15c-.77,0-1.39.62-1.39,1.39v24.8c0,.77.62,1.39,1.39,1.39h16.89c.33,0,.65.1.91.29l10.15,7.25v-5.97c0-.87.7-1.57,1.57-1.57h7.21c.77,0,1.39-.62,1.39-1.39V4.53c0-.77-.62-1.39-1.39-1.39h-36.74Z"/>
      <path class="cls-1" d="m73.11,15.84h-27.82c-.87,0-1.57-.7-1.57-1.57s.7-1.57,1.57-1.57h27.82c.87,0,1.57.7,1.57,1.57s-.7,1.57-1.57,1.57h0Z"/>
      <path class="cls-1" d="m67.38,23.02h-1.74c-.87,0-1.57-.7-1.57-1.57s.7-1.57,1.57-1.57h1.74c.87,0,1.57.7,1.57,1.57s-.7,1.57-1.57,1.57Z"/>
      <path class="cls-1" d="m61.64,23.02h-16.36c-.87,0-1.57-.7-1.57-1.57s.7-1.57,1.57-1.57h16.36c.87,0,1.57.7,1.57,1.57s-.7,1.57-1.57,1.57Z"/>
      <path class="cls-1" d="m30.25,47.2c-.87,0-1.57-.7-1.57-1.57v-6.65h-5c-2.36,0-4.27-1.91-4.27-4.27V12.09c0-2.36,1.91-4.27,4.27-4.27h8.99c.87,0,1.57.7,1.57,1.57s-.7,1.57-1.57,1.57h-8.99c-.62,0-1.13.5-1.13,1.13v22.6c0,.62.5,1.13,1.13,1.13h6.58c.87,0,1.57.7,1.57,1.57v5.17l9.03-6.45c.27-.19.59-.29.91-.29h15.39c.87,0,1.57.7,1.57,1.57s-.7,1.57-1.57,1.57h-14.88l-11.1,7.94c-.27.19-.59.29-.91.29h0Z"/>
      <path class="cls-1" d="m73.86,83.47h-6.16c-.87,0-1.57-.7-1.57-1.57s.7-1.57,1.57-1.57h6.16c.87,0,1.57.7,1.57,1.57s-.7,1.57-1.57,1.57Z"/>
      <path class="cls-1" d="m62.65,83.47h-1.54c-.87,0-1.57-.7-1.57-1.57s.7-1.57,1.57-1.57h1.54c.87,0,1.57.7,1.57,1.57s-.7,1.57-1.57,1.57Z"/>
      <path class="cls-1" d="m56.62,83.47h-31.42c-.87,0-1.57-.7-1.57-1.57s.7-1.57,1.57-1.57h31.42c.87,0,1.57.7,1.57,1.57s-.7,1.57-1.57,1.57Z"/>
    </g>
  </g>
</svg>