<?xml version="1.0" encoding="UTF-8"?>
<svg id="_Шар_2" data-name="Шар 2" xmlns="http://www.w3.org/2000/svg" xmlns:xlink="http://www.w3.org/1999/xlink" viewBox="0 0 152.72 152.74">
  <defs>
    <style>
      .cls-1 {
        fill: url(#linear-gradient-2);
      }

      .cls-2 {
        fill: url(#linear-gradient-3);
      }

      .cls-3 {
        fill: url(#linear-gradient);
      }

      .cls-4 {
        fill: url(#linear-gradient-4);
      }
    </style>
    <linearGradient id="linear-gradient" x1="46.19" y1="76.11" x2="107.06" y2="76.11" gradientUnits="userSpaceOnUse">
      <stop offset="0" stop-color="#9d62f5"/>
      <stop offset="1" stop-color="#6049cd"/>
    </linearGradient>
    <linearGradient id="linear-gradient-2" x1="0" y1="76.37" x2="152.72" y2="76.37" xlink:href="#linear-gradient"/>
    <linearGradient id="linear-gradient-3" x1="23.36" y1="76.11" x2="129.89" y2="76.11" xlink:href="#linear-gradient"/>
    <linearGradient id="linear-gradient-4" x1="72.77" y1="43.8" x2="145.11" y2="43.8" xlink:href="#linear-gradient"/>
  </defs>
  <g id="Layer_1" data-name="Layer 1">
    <g>
      <path class="cls-3" d="m76.62,53.29c2.1,0,3.8-1.7,3.8-3.8s-1.7-3.8-3.8-3.8c-16.81,0-30.44,13.63-30.44,30.44s13.63,30.44,30.44,30.44,30.44-13.63,30.44-30.44c0-2.1-1.7-3.8-3.8-3.8s-3.8,1.7-3.8,3.8c0,12.61-10.22,22.83-22.83,22.83s-22.83-10.22-22.83-22.83,10.22-22.83,22.83-22.83Z"/>
      <path class="cls-1" d="m149.22,53.52c-.66-2-2.81-3.08-4.81-2.42-1.95.65-3.04,2.72-2.46,4.69,11.38,36.23-8.77,74.83-45,86.21-36.23,11.38-74.83-8.77-86.2-45C-.64,60.76,19.51,22.17,55.74,10.79c13.41-4.21,27.79-4.21,41.2,0,2.01.61,4.14-.53,4.75-2.55.6-1.98-.5-4.08-2.47-4.72C58.99-9.1,16.14,13.28,3.52,53.51c-12.62,40.23,9.76,83.08,49.99,95.7,40.23,12.62,83.08-9.76,95.7-49.99,4.67-14.88,4.67-30.83,0-45.71Z"/>
      <path class="cls-2" d="m83.87,27.18c.02-2.17-1.64-3.98-3.8-4.14-1.14-.1-2.27-.19-3.44-.19-29.42,0-53.27,23.85-53.27,53.27s23.85,53.26,53.27,53.26,53.26-23.85,53.26-53.26c0-1.38-.08-2.75-.25-4.12-.3-2.09-2.24-3.53-4.33-3.23-2.09.3-3.53,2.24-3.23,4.33.01.08.03.16.04.24.08.92.16,1.84.16,2.78,0,25.22-20.44,45.66-45.65,45.66-25.22,0-45.66-20.44-45.66-45.65,0-25.21,20.44-45.66,45.65-45.66h0c.94,0,1.86.08,2.78.16l.71.06c1.99.09,3.67-1.46,3.75-3.45,0-.02,0-.04,0-.05Z"/>
      <path class="cls-4" d="m99.45,34.26v13.64l-25.52,25.52c-1.51,1.46-1.55,3.87-.09,5.38,1.46,1.51,3.87,1.55,5.38.09.03-.03.06-.06.09-.09l25.52-25.52h13.64c1.01,0,1.98-.4,2.69-1.12l22.83-22.83c1.49-1.49,1.49-3.89,0-5.38-.71-.71-1.68-1.11-2.69-1.11h-11.41v-11.41c0-2.1-1.7-3.8-3.81-3.8-1.01,0-1.98.4-2.69,1.11l-22.83,22.83c-.71.71-1.12,1.68-1.12,2.69Zm7.61,1.58l15.22-15.22v6.03c0,2.1,1.7,3.8,3.8,3.8h6.03l-15.22,15.22h-9.84v-9.84Z"/>
    </g>
  </g>
</svg>