<?xml version="1.0" encoding="UTF-8"?>
<svg id="_Шар_2" data-name="Шар 2" xmlns="http://www.w3.org/2000/svg" xmlns:xlink="http://www.w3.org/1999/xlink" viewBox="0 0 189.55 189.55">
  <defs>
    <style>
      .cls-1 {
        fill: url(#linear-gradient-2);
      }

      .cls-2 {
        fill: url(#linear-gradient-3);
      }

      .cls-3 {
        fill: url(#linear-gradient);
      }

      .cls-4 {
        fill: url(#linear-gradient-4);
      }
    </style>
    <linearGradient id="linear-gradient" x1="0" y1="171.41" x2="51.83" y2="171.41" gradientUnits="userSpaceOnUse">
      <stop offset="0" stop-color="#9d62f5"/>
      <stop offset="1" stop-color="#6049cd"/>
    </linearGradient>
    <linearGradient id="linear-gradient-2" x1="68.86" y1="165.11" x2="120.69" y2="165.11" xlink:href="#linear-gradient"/>
    <linearGradient id="linear-gradient-3" x1="38.14" y1="94.77" x2="189.55" y2="94.77" xlink:href="#linear-gradient"/>
    <linearGradient id="linear-gradient-4" x1="82.1" y1="116.91" x2="89.5" y2="116.91" xlink:href="#linear-gradient"/>
  </defs>
  <g id="Layer_1" data-name="Layer 1">
    <g>
      <path class="cls-3" d="m48.13,153.27H3.7c-2.04,0-3.7,1.66-3.7,3.7v28.88c0,2.04,1.66,3.7,3.7,3.7h44.43c2.04,0,3.7-1.66,3.7-3.7v-28.88c0-2.04-1.66-3.7-3.7-3.7Zm-3.7,28.88H7.4v-21.47h37.02v21.47Z"/>
      <path class="cls-1" d="m116.99,140.68h-44.43c-2.04,0-3.7,1.66-3.7,3.7v41.46c0,2.04,1.66,3.7,3.7,3.7h44.43c2.04,0,3.7-1.66,3.7-3.7v-41.46c0-2.04-1.66-3.7-3.7-3.7Zm-3.7,41.46h-37.02v-34.06h37.02v34.06Z"/>
      <path class="cls-2" d="m185.85,128.83h-32.34c.2-.37.39-.75.56-1.14,1.33-3.12,1.37-6.57.11-9.72l-11.96-29.79c-1.05-2.61-2.96-4.83-5.39-6.24l-11.68-6.8c0-.08.01-.15.01-.23v-25.32c14.62-2.2,27.85-8.89,38.44-19.48l.25-.25c4.66-4.66,4.66-12.24,0-16.89-2.26-2.26-5.26-3.5-8.45-3.5s-6.19,1.24-8.45,3.5l-.25.25c-7.27,7.27-16.58,11.76-26.64,12.95,1.28-2.23,2.01-4.81,2.01-7.57v-3.31c0-8.43-6.86-15.29-15.29-15.29s-15.29,6.86-15.29,15.29v3.31c0,2.88.8,5.58,2.19,7.88h-.53c-18.48,0-35.86,7.2-48.93,20.27l-.25.25c-4.66,4.66-4.66,12.24,0,16.89,4.66,4.66,12.24,4.66,16.9,0l.25-.25c6.02-6.03,13.41-10.14,21.54-12.06v23.31c0,.83.27,1.59.73,2.2l-10.89,22.1-27.11,12.86c-3.06,1.45-5.38,4.01-6.52,7.21-1.14,3.19-.96,6.64.49,9.7,2.09,4.41,6.6,7.26,11.48,7.26,1.89,0,3.72-.41,5.44-1.23l16.05-7.61c1.85-.88,2.63-3.08,1.76-4.93-.88-1.85-3.08-2.63-4.93-1.76l-16.05,7.61c-.72.34-1.48.51-2.26.51-2.04,0-3.91-1.19-4.79-3.03-.61-1.28-.68-2.71-.2-4.04.47-1.33,1.44-2.4,2.72-3l28.27-13.41c.75-.36,1.37-.96,1.73-1.71l12.33-25.03h25.47l16.72,9.73c1.01.59,1.81,1.51,2.25,2.6l11.96,29.79c.53,1.31.51,2.75-.04,4.05-.56,1.3-1.58,2.31-2.9,2.83-.63.25-1.3.38-1.97.38-2.17,0-4.1-1.3-4.91-3.32l-10.81-26.92c-.36-.88-1.04-1.6-1.91-1.99l-18.56-8.43c-1.61-.73-3.5-.22-4.53,1.21l-9.14,12.69c-1.2,1.66-.82,3.97.84,5.17,1.66,1.2,3.97.82,5.17-.84l7.37-10.23,14.45,6.56,10.25,25.55c1.33,3.32,3.93,5.83,7.11,7.09v51.33c0,2.04,1.66,3.7,3.7,3.7h44.43c2.04,0,3.7-1.66,3.7-3.7v-53.31c0-2.04-1.66-3.7-3.7-3.7h0ZM98.89,18.6v-3.31c0-4.35,3.54-7.88,7.88-7.88s7.88,3.54,7.88,7.88v3.31c0,4.35-3.54,7.88-7.88,7.88s-7.88-3.54-7.88-7.88Zm-8.83,52.6v-24.06c0-1.07-.46-2.09-1.27-2.79-.81-.7-1.88-1.02-2.94-.88-11.41,1.57-21.78,6.74-29.97,14.94l-.25.25c-1.77,1.77-4.65,1.77-6.42,0-1.77-1.77-1.77-4.65,0-6.42l.25-.25c11.67-11.67,27.19-18.1,43.69-18.1h21.5c14.08,0,27.32-5.48,37.27-15.44l.25-.25c.86-.86,2-1.33,3.21-1.33s2.35.47,3.21,1.33h0c1.77,1.77,1.77,4.65,0,6.42l-.25.25c-10.17,10.17-23.06,16.31-37.28,17.77-1.89.19-3.32,1.78-3.32,3.68v24.88h-27.68Zm92.08,110.94h-37.02v-45.91h37.02v45.91Z"/>
      <path class="cls-4" d="m88.42,119.53c.69-.69,1.08-1.64,1.08-2.62s-.39-1.93-1.08-2.62c-.69-.69-1.64-1.08-2.62-1.08s-1.93.4-2.62,1.08c-.69.69-1.08,1.64-1.08,2.62s.39,1.93,1.08,2.62c.69.69,1.64,1.09,2.62,1.09s1.93-.4,2.62-1.09Z"/>
    </g>
  </g>
</svg>