<?xml version="1.0" encoding="UTF-8"?>
<svg id="_Шар_2" data-name="Шар 2" xmlns="http://www.w3.org/2000/svg" viewBox="0 0 138.01 147.24">
  <defs>
    <style>
      .cls-1 {
        fill: #fff;
      }
    </style>
  </defs>
  <g id="Layer_1" data-name="Layer 1">
    <g>
      <path class="cls-1" d="m28.82,65.94c.15,7.15-3.16,11.92-9.01,13.16-5.51,1.17-11.01-1.7-13.14-6.84-2.11-5.1-.3-11,4.31-14.06,4.21-2.79,10.73-2.9,15.44,2.44,1.9-.83,3.85-1.69,5.81-2.55,7.18-3.16,14.36-6.33,21.55-9.48.76-.33,1.2-.64,1.17-1.64-.15-5.39,2.54-9.66,7.16-11.52,4.59-1.85,9.33-.67,13.05,3.24.06.07.15.12.39.29,8.64-3.81,17.38-7.66,26.16-11.53-1.27-1.33-2.47-2.62-3.7-3.86-1.38-1.39-2.8-2.76-4.21-4.12-.96-.92-1.3-2.02-.85-3.27.43-1.19,1.38-1.74,2.63-1.9,3.46-.46,6.92-1.02,10.38-1.47.99-.13,1.58-.52,2.03-1.47,1.45-3.12,3.03-6.19,4.54-9.28C113.1.88,113.92,0,115.34,0c1.42,0,2.26.83,2.85,2.04,1.55,3.19,3.14,6.35,4.68,9.54.34.71.75,1.06,1.58,1.17,3.56.47,7.1,1.06,10.66,1.55,1.37.19,2.34.8,2.77,2.14.42,1.32-.18,2.31-1.1,3.2-2.44,2.37-4.84,4.79-7.33,7.1-.85.79-1.05,1.55-.85,2.64.63,3.39,1.16,6.79,1.78,10.18.24,1.31-.03,2.4-1.11,3.18-1.08.79-2.24.68-3.39.07-3.17-1.68-6.33-3.39-9.54-4.99-.52-.26-1.4-.25-1.93,0-3.13,1.55-6.21,3.19-9.29,4.85-1.23.66-2.44.91-3.64.05-1.23-.88-1.3-2.15-1.06-3.49.29-1.64.58-3.28.92-5.2-.67.25-1.14.41-1.59.6-6.87,3.03-13.73,6.08-20.62,9.08-.93.4-1.25.86-1.21,1.91.18,5.05-2.53,9.3-6.99,11.2-4.4,1.87-9.27.85-12.85-2.64-.32-.32-.92-.36-1.4-.5-.11-.03-.26.09-.4.15-9.15,4.03-18.3,8.06-27.47,12.11Zm94.87-30.81c-.42-2.47-.76-4.73-1.2-6.97-.32-1.66.12-2.94,1.38-4.1,1.62-1.5,3.09-3.17,4.72-4.88-1.98-.28-3.86-.65-5.75-.78-2.35-.16-3.91-1.13-4.78-3.4-.7-1.83-1.73-3.54-2.73-5.56-1.22,2.44-2.3,4.56-3.33,6.71-.57,1.18-1.43,1.87-2.75,1.99-.71.06-1.42.19-2.13.3-1.66.26-3.32.52-4.95.77,1.76,1.84,3.39,3.59,5.07,5.28.92.93,1.28,1.93,1.03,3.25-.47,2.39-.84,4.79-1.28,7.38,2.16-1.13,4.18-2.11,6.12-3.23,1.59-.92,3.02-.87,4.58.04,1.9,1.1,3.87,2.07,6.01,3.2ZM23.08,67.87c.02-3.21-2.51-5.77-5.7-5.78-3.18-.01-5.79,2.55-5.81,5.71-.03,3.12,2.61,5.78,5.74,5.8,3.17.02,5.76-2.55,5.77-5.73Zm49.1-21.68c0-3.19-2.55-5.74-5.74-5.75-3.2,0-5.76,2.54-5.77,5.72,0,3.15,2.6,5.78,5.74,5.79,3.14.01,5.76-2.61,5.77-5.76Z"/>
      <path class="cls-1" d="m132.85,105.82c0,12.51,0,25.01,0,37.52,0,2.95-.93,3.9-3.84,3.9-9.01,0-18.02,0-27.03,0-2.82,0-3.81-.97-3.81-3.79,0-24.97-.01-49.93,0-74.9,0-5.77,3.59-9.35,9.31-9.36,5.37-.01,10.73-.01,16.1,0,5.64.01,9.26,3.63,9.27,9.25,0,12.46,0,24.92,0,37.38Zm-5.83,35.58c.02-.46.05-.74.05-1.03,0-23.96,0-47.92,0-71.87,0-2.53-1.04-3.53-3.62-3.53-5.22,0-10.45,0-15.67,0-2.87,0-3.8.91-3.8,3.77,0,23.72,0,47.44,0,71.15,0,.5.06,1,.09,1.51h22.95Z"/>
      <path class="cls-1" d="m49.12,111.43c0-10.35.15-20.71-.06-31.06-.12-5.86,4.24-9.91,9.64-9.7,5.22.21,10.45.04,15.67.05,5.78.01,9.36,3.55,9.36,9.29,0,21.18,0,42.37,0,63.55,0,2.75-.95,3.67-3.75,3.67-9.01,0-18.02,0-27.03,0-2.93,0-3.82-.91-3.82-3.89,0-10.64,0-21.28,0-31.92Zm28.77,29.96c.02-.46.06-.83.06-1.21,0-20.08,0-40.16,0-60.25,0-2.38-1.05-3.43-3.41-3.43-5.22-.01-10.45,0-15.67,0-3.08,0-3.96.87-3.96,3.9,0,19.79,0,39.59,0,59.38,0,.51,0,1.03,0,1.61h22.99Z"/>
      <path class="cls-1" d="m0,123.03c0-6.61,0-13.23,0-19.84,0-5.71,3.63-9.37,9.32-9.39,5.37-.02,10.73-.02,16.1,0,5.54.02,9.24,3.63,9.26,9.16.04,13.56.02,27.12,0,40.68,0,2.55-1.06,3.6-3.57,3.6-9.2,0-18.4,0-27.6,0-2.43,0-3.51-1.07-3.51-3.51-.01-6.9,0-13.8,0-20.7Zm28.78,18.36c.04-.45.09-.82.09-1.2,0-12.36.01-24.72,0-37.09,0-2.51-1.06-3.52-3.65-3.52-5.17-.01-10.35,0-15.52,0-2.96,0-3.92.98-3.92,3.99,0,12.07,0,24.15,0,36.22,0,.51,0,1.02,0,1.59h23.01Z"/>
    </g>
  </g>
</svg>