<?xml version="1.0" encoding="UTF-8"?>
<svg id="_Шар_2" data-name="Шар 2" xmlns="http://www.w3.org/2000/svg" xmlns:xlink="http://www.w3.org/1999/xlink" viewBox="0 0 109.4 138.96">
  <defs>
    <style>
      .cls-1 {
        fill: url(#linear-gradient-2);
      }

      .cls-2 {
        fill: url(#linear-gradient);
      }
    </style>
    <linearGradient id="linear-gradient" x1="42.97" y1="60.22" x2="65.47" y2="60.22" gradientUnits="userSpaceOnUse">
      <stop offset="0" stop-color="#9d62f5"/>
      <stop offset="1" stop-color="#6049cd"/>
    </linearGradient>
    <linearGradient id="linear-gradient-2" x1="0" y1="69.48" x2="109.4" y2="69.48" xlink:href="#linear-gradient"/>
  </defs>
  <g id="Layer_1" data-name="Layer 1">
    <g>
      <path class="cls-2" d="m54.22,48.98c-6.2,0-11.25,5.05-11.25,11.25s5.05,11.25,11.25,11.25,11.25-5.05,11.25-11.25c0-6.2-5.05-11.25-11.25-11.25Zm0,18.42c-3.96,0-7.18-3.22-7.18-7.18s3.22-7.18,7.18-7.18,7.18,3.22,7.18,7.18c0,3.96-3.22,7.18-7.18,7.18Z"/>
      <path class="cls-1" d="m107.35,132.06c-13.84-10.64-24.75-30.86-31.6-58.51,12.87-18.54,12.36-17.61,12.39-19.6.04-3.76-3.65-6.78-7.74-5.23-1.46.54-1.53.57-7.89,9.81-1.44-8.03-2.32-15.16-2.85-20.44h13.06c1.95,0,3.69-1.16,4.44-2.96.75-1.8.34-3.85-1.04-5.23l-12.08-12.07c-.79-.79-2.08-.79-2.88,0-.79.8-.79,2.08,0,2.88,13.07,13.07,12.49,12.25,12.23,12.87-.11.27-.38.45-.67.45h-15.3c-1.19,0-2.14,1.03-2.03,2.22.57,6.27,1.7,15.99,3.86,27.02-1.95,2.83-3.59,5.21-5.89,8.53-.91,1.21-2.56,2.1-4.62,2.1-9.84,0-9.54.05-10.45-.15-1.87-.41-2.86-1.53-3.18-1.95l-5.89-8.51c2.16-11.04,3.29-20.76,3.86-27.04.11-1.19-.83-2.22-2.03-2.22-16.4,0-15.71.19-15.98-.45-.27-.65-1.81,1.17,28.64-29.28.27-.27.76-.27,1.03,0l9.69,9.69c.79.79,2.08.79,2.88,0,.79-.8.79-2.08,0-2.88L57.62,1.41c-1.88-1.88-4.91-1.88-6.79,0l-28.48,28.48c-3.02,3.02-.88,8.2,3.39,8.2h13.06c-.53,5.29-1.41,12.43-2.86,20.47l-5.44-7.86c-1.75-2.53-5.24-3.18-7.78-1.42-2.54,1.76-3.18,5.24-1.42,7.78l11.39,16.47c-11.05,44.67-28.5,55.3-30.77,57.91-3.27,3.41-2.46,7.48,3.09,7.48h17.33c1.12,0,2.04-.91,2.04-2.04s-.91-2.04-2.04-2.04c-18.71,0-17.55.01-17.94-.02,1.55-2.23,19.69-12.93,31.34-56.79l3.4,4.91c.27.47,2.69,4.77,2.69,9.54,0,44.37-.03,41.75.07,42.37h-10.06c-1.12,0-2.04.91-2.04,2.04s.91,2.04,2.04,2.04c15.13,0,14.07.02,14.37-.04.68.11,15.34.11,16.01,0,.31.06-2.24.04,42.45.04.92,0,3.72,0,4.55-2.19.67-1.79-.7-3.77-1.88-4.67Zm-44.84-39.63v41.38c0,.59-.48,1.07-1.07,1.07h-5.17v-27.02c0-1.12-.91-2.04-2.04-2.04s-2.04.91-2.04,2.04v27.02h-5.18c-.59,0-1.07-.48-1.07-1.07v-41.38c0-5.06-2.34-10.29-3.36-11.77-19.31-27.91-18.33-26.17-18.17-27.05.24-1.33,1.98-1.7,2.75-.59.03.04,14.61,21.13,14.64,21.16.65.89,3.16,3.78,7.92,3.78h9.01c3.61,0,6.56-1.81,7.95-3.83,10.67-15.42,14.28-20.85,15.07-21.58,1.19-.44,2.29,0,2.32,1.59,0,0,0,0,0,0-.5,1.14-4.88,7.25-18.2,26.51-.33.48-3.36,5.75-3.36,11.77Zm4.03,42.43c.1-.61.07,2.01.07-42.37,0-4.78,2.42-9.09,2.69-9.54,1.21-1.75,2.34-3.38,3.4-4.91,5.44,20.48,14.93,43.64,31.62,56.82h-37.78Z"/>
    </g>
  </g>
</svg>