<?xml version="1.0" encoding="UTF-8"?>
<svg id="_Шар_2" data-name="Шар 2" xmlns="http://www.w3.org/2000/svg" xmlns:xlink="http://www.w3.org/1999/xlink" viewBox="0 0 179.89 175.77">
  <defs>
    <style>
      .cls-1 {
        fill: url(#linear-gradient-2);
      }

      .cls-2 {
        fill: url(#linear-gradient-5);
      }

      .cls-3 {
        fill: url(#linear-gradient-3);
      }

      .cls-4 {
        fill: url(#linear-gradient);
      }

      .cls-5 {
        fill: url(#linear-gradient-4);
      }
    </style>
    <linearGradient id="linear-gradient" x1="0" y1="87.88" x2="179.89" y2="87.88" gradientUnits="userSpaceOnUse">
      <stop offset="0" stop-color="#9d62f5"/>
      <stop offset="1" stop-color="#6049cd"/>
    </linearGradient>
    <linearGradient id="linear-gradient-2" x1="43.85" y1="87.89" x2="136.04" y2="87.89" xlink:href="#linear-gradient"/>
    <linearGradient id="linear-gradient-3" x1="62.69" y1="79.28" x2="75.4" y2="79.28" xlink:href="#linear-gradient"/>
    <linearGradient id="linear-gradient-4" x1="83.59" y1="79.28" x2="96.3" y2="79.28" xlink:href="#linear-gradient"/>
    <linearGradient id="linear-gradient-5" x1="104.49" y1="79.28" x2="117.19" y2="79.28" xlink:href="#linear-gradient"/>
  </defs>
  <g id="Layer_1" data-name="Layer 1">
    <g>
      <path class="cls-4" d="m168.84,76.13c-.7-20.02-8.81-38.75-23.05-52.99C130.87,8.22,111.03,0,89.94,0,47.35,0,12.55,33.9,11.05,76.13c-6.5,2.89-11.05,9.39-11.05,16.96v20.83c0,10.23,8.32,18.55,18.55,18.55,6.62,0,12-5.38,12-12v-33.93c0-6.22-4.77-11.28-10.83-11.89C21.97,37.86,52.6,8.61,89.94,8.61c18.79,0,36.47,7.33,49.77,20.63,12.21,12.21,19.36,28.13,20.44,45.42-6.06.61-10.81,5.67-10.81,11.88v33.93c0,6.27,4.84,11.37,10.97,11.9v8.57c0,9.66-7.86,17.51-17.51,17.51h-12.97c-.64-1.82-1.63-3.5-3.03-4.89-2.45-2.46-5.72-3.82-9.2-3.82h-13.37c-1.92,0-3.76.41-5.45,1.19-4.6,2.11-7.57,6.76-7.57,11.82,0,3.48,1.36,6.75,3.81,9.2,2.46,2.46,5.73,3.82,9.2,3.82h13.37c5.54,0,10.43-3.58,12.25-8.72h12.96c14.4,0,26.12-11.71,26.12-26.11v-10.11c6.46-2.91,10.97-9.39,10.97-16.92v-20.83c0-7.56-4.55-14.06-11.05-16.95h0Zm-146.89,10.4v33.93c0,1.87-1.52,3.4-3.4,3.4-5.48,0-9.95-4.46-9.95-9.95v-20.83c0-5.49,4.46-9.95,9.95-9.95,1.88,0,3.4,1.53,3.4,3.4h0Zm99.96,77.13c-.43,2.03-2.25,3.5-4.32,3.5h-13.37c-1.18,0-2.28-.46-3.12-1.3-.83-.83-1.29-1.94-1.29-3.11,0-1.72,1.01-3.29,2.58-4.01.56-.26,1.18-.4,1.83-.4h13.37c1.18,0,2.28.46,3.12,1.3.83.83,1.29,1.94,1.29,3.11,0,.32-.03.63-.09.92h0Zm49.38-49.76c0,5.48-4.46,9.95-9.95,9.95-1.87,0-3.4-1.52-3.4-3.4v-33.93c0-1.87,1.52-3.4,3.4-3.4,5.48,0,9.95,4.46,9.95,9.95v20.83Z"/>
      <path class="cls-1" d="m117.81,115.4c10.05,0,18.23-8.18,18.23-18.23v-37.15c0-4.86-1.9-9.44-5.35-12.88-3.45-3.45-8.02-5.35-12.88-5.35h-55.72c-10.05,0-18.23,8.18-18.23,18.23v37.15c0,10.05,8.18,18.23,18.23,18.23h.34v9.63c0,3.67,2.19,6.93,5.57,8.3,1.09.44,2.23.66,3.35.66,2.34,0,4.63-.93,6.3-2.66l16.01-15.93h24.14Zm-28.95-7.35l-17.33,17.24c-.08.08-.13.14-.3.07-.2-.08-.2-.21-.2-.32v-13.93c0-2.38-1.92-4.3-4.3-4.3h-4.64c-5.31,0-9.63-4.32-9.63-9.63v-37.15c0-5.31,4.32-9.63,9.63-9.63h55.72c2.56,0,4.98,1,6.8,2.83,1.82,1.82,2.83,4.24,2.83,6.8v37.15c0,5.31-4.32,9.63-9.63,9.63h-25.91c-1.14,0-2.23.45-3.03,1.25h0Z"/>
      <path class="cls-3" d="m69.04,72.93c-3.5,0-6.35,2.85-6.35,6.35s2.85,6.35,6.35,6.35,6.35-2.85,6.35-6.35-2.85-6.35-6.35-6.35Z"/>
      <path class="cls-5" d="m89.94,72.93c-3.5,0-6.35,2.85-6.35,6.35s2.85,6.35,6.35,6.35,6.35-2.85,6.35-6.35-2.85-6.35-6.35-6.35Z"/>
      <path class="cls-2" d="m110.84,72.93c-3.5,0-6.35,2.85-6.35,6.35s2.85,6.35,6.35,6.35,6.35-2.85,6.35-6.35-2.85-6.35-6.35-6.35Z"/>
    </g>
  </g>
</svg>