<?xml version="1.0" encoding="UTF-8"?>
<svg id="_Шар_2" data-name="Шар 2" xmlns="http://www.w3.org/2000/svg" viewBox="0 0 97.44 97.43">
  <defs>
    <style>
      .cls-1 {
        fill: #fff;
      }
    </style>
  </defs>
  <g id="Layer_1" data-name="Layer 1">
    <g>
      <path class="cls-1" d="m79.17,0c-6.72,0-12.18,5.46-12.18,12.18s5.46,12.18,12.18,12.18,12.18-5.46,12.18-12.18S85.88,0,79.17,0Zm0,18.27c-3.36,0-6.09-2.73-6.09-6.09s2.73-6.09,6.09-6.09,6.09,2.73,6.09,6.09-2.73,6.09-6.09,6.09Z"/>
      <path class="cls-1" d="m97.42,63.64l-2.75-27.76c-.36-3.1-2.97-5.44-6.07-5.44h-3.35c-.81,0-1.58.32-2.16.89l-3.93,3.94-3.93-3.93c-.57-.57-1.35-.9-2.16-.9h-27.4c-5.04,0-9.13,4.1-9.13,9.13s4.1,9.13,9.13,9.13h19.55l4.53,43.27c.35,3.11,2.96,5.44,6.07,5.44h6.7c3.11,0,5.71-2.34,6.08-5.49l2.47-24.96h3.33c.86,0,1.68-.37,2.26-1,.58-.63.86-1.49.77-2.34Zm-9.12-2.75c-1.57,0-2.87,1.19-3.03,2.75l-2.75,27.7h-6.72s-4.81-45.99-4.81-45.99c-.16-1.55-1.47-2.73-3.03-2.73h-22.29c-1.68,0-3.04-1.37-3.04-3.04s1.36-3.04,3.04-3.04h26.14l5.2,5.2c1.19,1.19,3.12,1.19,4.31,0l5.2-5.2h2.1s2.41,24.36,2.41,24.36h-2.73Z"/>
      <path class="cls-1" d="m21.31,73.08H3.04c-1.68,0-3.04,1.36-3.04,3.04v18.27c0,1.68,1.36,3.04,3.04,3.04h18.27c1.68,0,3.04-1.36,3.04-3.04v-18.27c0-1.68-1.36-3.04-3.04-3.04Zm-3.04,18.27H6.09v-12.18h12.18v12.18Z"/>
      <path class="cls-1" d="m51.76,54.81h-18.27c-1.68,0-3.04,1.36-3.04,3.04v36.54c0,1.68,1.36,3.04,3.04,3.04h18.27c1.68,0,3.04-1.36,3.04-3.04v-36.54c0-1.68-1.36-3.04-3.04-3.04Zm-3.04,36.54h-12.18v-30.45h12.18v30.45Z"/>
    </g>
  </g>
</svg>