<?xml version="1.0" encoding="UTF-8"?>
<svg id="_Шар_2" data-name="Шар 2" xmlns="http://www.w3.org/2000/svg" viewBox="0 0 95.86 95.86">
  <defs>
    <style>
      .cls-1 {
        fill: #fff;
      }
    </style>
  </defs>
  <g id="Layer_1" data-name="Layer 1">
    <g>
      <path class="cls-1" d="m24.34,77.51H1.87c-1.03,0-1.87.84-1.87,1.87v14.6c0,1.03.84,1.87,1.87,1.87h22.47c1.03,0,1.87-.84,1.87-1.87v-14.6c0-1.03-.84-1.87-1.87-1.87Zm-1.87,14.6H3.74v-10.86h18.72v10.86Z"/>
      <path class="cls-1" d="m59.16,71.15h-22.47c-1.03,0-1.87.84-1.87,1.87v20.97c0,1.03.84,1.87,1.87,1.87h22.47c1.03,0,1.87-.84,1.87-1.87v-20.97c0-1.03-.84-1.87-1.87-1.87Zm-1.87,20.97h-18.72v-17.22h18.72v17.22Z"/>
      <path class="cls-1" d="m93.99,65.16h-16.35c.1-.19.2-.38.28-.58.67-1.58.69-3.32.05-4.91l-6.05-15.07c-.53-1.32-1.5-2.44-2.73-3.16l-5.91-3.44s0-.08,0-.12v-12.8c7.39-1.11,14.08-4.5,19.44-9.85l.13-.13c2.36-2.36,2.36-6.19,0-8.54-1.14-1.14-2.66-1.77-4.27-1.77s-3.13.63-4.27,1.77l-.13.13c-3.68,3.68-8.38,5.95-13.47,6.55.65-1.13,1.02-2.43,1.02-3.83v-1.67c0-4.26-3.47-7.73-7.73-7.73s-7.73,3.47-7.73,7.73v1.67c0,1.46.41,2.82,1.11,3.99h-.27c-9.35,0-18.14,3.64-24.75,10.25l-.13.13c-2.36,2.36-2.36,6.19,0,8.54,2.36,2.36,6.19,2.36,8.54,0l.13-.13c3.05-3.05,6.78-5.13,10.89-6.1v11.79c0,.42.14.8.37,1.11l-5.51,11.18-13.71,6.5c-1.55.74-2.72,2.03-3.3,3.65-.58,1.62-.49,3.36.25,4.91,1.06,2.23,3.34,3.67,5.8,3.67.96,0,1.88-.21,2.75-.62l8.12-3.85c.93-.44,1.33-1.56.89-2.49-.44-.93-1.56-1.33-2.49-.89l-8.12,3.85c-.36.17-.75.26-1.14.26-1.03,0-1.98-.6-2.42-1.53-.31-.65-.34-1.37-.1-2.05.24-.67.73-1.21,1.37-1.52l14.3-6.78c.38-.18.69-.49.88-.86l6.23-12.66h12.88l8.45,4.92c.51.3.92.77,1.14,1.32l6.05,15.07c.27.66.26,1.39-.02,2.05-.28.66-.8,1.17-1.46,1.43-.32.13-.66.19-1,.19-1.1,0-2.08-.66-2.48-1.68l-5.47-13.62c-.18-.45-.52-.81-.96-1.01l-9.39-4.26c-.81-.37-1.77-.11-2.29.61l-4.62,6.42c-.6.84-.41,2.01.43,2.61.84.6,2.01.41,2.61-.43l3.73-5.17,7.31,3.32,5.19,12.92c.67,1.68,1.99,2.95,3.6,3.58v25.96c0,1.03.84,1.87,1.87,1.87h22.47c1.03,0,1.87-.84,1.87-1.87v-26.96c0-1.03-.84-1.87-1.87-1.87h0ZM50.01,9.41v-1.67c0-2.2,1.79-3.99,3.99-3.99s3.99,1.79,3.99,3.99v1.67c0,2.2-1.79,3.99-3.99,3.99s-3.99-1.79-3.99-3.99Zm-4.46,26.6v-12.17c0-.54-.23-1.06-.64-1.41-.41-.36-.95-.52-1.49-.44-5.77.79-11.01,3.41-15.16,7.55l-.13.13c-.9.9-2.35.9-3.25,0-.9-.9-.9-2.35,0-3.25l.13-.13c5.9-5.9,13.75-9.15,22.1-9.15h10.87c7.12,0,13.81-2.77,18.85-7.81l.13-.13c.43-.43,1.01-.67,1.62-.67s1.19.24,1.62.67h0c.9.9.9,2.35,0,3.25l-.13.13c-5.14,5.14-11.66,8.25-18.85,8.99-.96.1-1.68.9-1.68,1.86v12.58h-14Zm46.57,56.11h-18.72v-23.22h18.72v23.22Z"/>
      <path class="cls-1" d="m44.72,60.45c.35-.35.55-.83.55-1.32s-.2-.98-.55-1.32c-.35-.35-.83-.55-1.32-.55s-.98.2-1.33.55c-.35.35-.55.83-.55,1.32s.2.98.55,1.32c.35.35.83.55,1.33.55s.97-.2,1.32-.55Z"/>
    </g>
  </g>
</svg>