<?xml version="1.0" encoding="UTF-8"?>
<svg id="_Шар_2" data-name="Шар 2" xmlns="http://www.w3.org/2000/svg" viewBox="0 0 141.16 150">
  <defs>
    <style>
      .cls-1 {
        fill: #fff;
      }
    </style>
  </defs>
  <g id="Layer_1" data-name="Layer 1">
    <path class="cls-1" d="m66.75,72.18l-26.19,4.22c-.82.13-1.49.71-1.75,1.5-.25.79-.04,1.65.55,2.24l5.45,5.39c-8.94,14.28-25.66,23.48-43.47,32.38-.95.47-1.42,1.56-1.13,2.57.27.95,1.14,1.6,2.12,1.6.07,0,.14,0,.2,0,20.59-1.9,39-5.06,55.07-23.91l4.18,4.13c.59.58,1.46.79,2.25.52.79-.27,1.36-.95,1.48-1.78l3.77-26.37c.1-.69-.14-1.39-.64-1.88-.5-.49-1.2-.72-1.89-.6h0Zm-4.98,23.9l-2.78-2.75c-.44-.44-1.05-.67-1.68-.63-.62.04-1.2.34-1.59.82-12.25,15.31-26.2,20.38-41.62,22.76,14.79-7.98,27.88-16.94,35.4-30.01.5-.87.35-1.96-.36-2.66l-3.6-3.55,18.95-3.06-2.73,19.08ZM106.9,21.48c5.92,0,10.74-4.82,10.74-10.74S112.83,0,106.9,0s-10.74,4.82-10.74,10.74,4.82,10.74,10.74,10.74Zm0-17.08c3.49,0,6.34,2.84,6.34,6.34s-2.84,6.34-6.34,6.34-6.33-2.84-6.33-6.34,2.84-6.34,6.33-6.34Zm33.71,25.35c-1.51-3.67-5.72-5.43-9.39-3.92-3.46,1.42-7.04,2.81-10.5,4.15-1.21.47-2.42.93-3.62,1.4-.09-.08-.18-.15-.28-.23-3.45-2.91-8.17-6.91-12.34-7.88-5.06-1.18-11.89,2.51-17.91,5.77-1.59.86-3.09,1.67-4.31,2.24-1.29.6-3.21,2.66-7.63,8.15-.33.41-.61.75-.8.99-.55.67-1.21,1.44-1.92,2.26-2.24,2.6-4.78,5.55-6.06,7.86-.07.12-.12.24-.16.37-1.15,3.43.45,7.2,3.71,8.77,1.74.83,5.24,1.6,9.14-2.7l8.35-9.64c-.34,2.11-.65,4.33-.82,6.59-.25,3.32-.2,6.65-.16,9.87.05,3.97.11,7.73-.35,11.48l-9.15,21.24c-.76,1.76-.78,3.72-.07,5.51.72,1.79,2.08,3.2,3.84,3.95.93.4,1.89.59,2.84.59,2.78,0,5.42-1.6,6.56-4.23l10.98-22.14c.04-.08.08-.16.1-.25.56-1.6.61-3.41.65-5.15.01-.64.03-1.29.08-1.88,4.56.07,8.65.27,12.42.63l3.2,8.42c1.41,3.71,5.57,5.59,9.27,4.19,1.8-.68,3.23-2.02,4.02-3.78.79-1.76.85-3.71.17-5.51-.31-.82-.66-1.92-1.04-3.09-1.87-5.87-4.21-13.18-9.34-13.97-3.71-.58-7.62-.87-10.95-1.03.04-3.74.23-7.66.9-11.5.16-.93.34-1.78.53-2.57l.57.47c2.07,1.71,4.9,2.13,7.33,1.11,1.83-.72,3.66-1.43,5.5-2.14,4.18-1.62,8.5-3.29,12.7-5.02,1.78-.73,3.16-2.11,3.9-3.88.74-1.78.74-3.73.01-5.51h0Zm-4.08,3.81c-.29.69-.83,1.22-1.52,1.51-4.16,1.72-8.45,3.38-12.61,4.99-1.84.71-3.68,1.42-5.56,2.16-.97.4-2.07.24-2.87-.42l-3.1-2.57c-.55-.45-1.27-.61-1.96-.44-.68.18-1.24.67-1.5,1.33-.69,1.78-1.25,3.87-1.69,6.4-.86,4.9-.98,9.8-.98,14.36,0,1.18.93,2.15,2.11,2.2,3.59.15,8.25.41,12.58,1.08,2.44.37,4.72,7.52,5.82,10.95.39,1.23.76,2.39,1.11,3.31.26.69.24,1.45-.07,2.14-.31.68-.86,1.21-1.56,1.47-1.44.54-3.05-.19-3.6-1.63l-3.68-9.69c-.29-.78-1-1.32-1.82-1.41-4.79-.51-10.04-.78-16.05-.81-.96-.04-1.79.6-2.1,1.5-.48,1.43-.52,3.1-.56,4.71-.03,1.35-.06,2.74-.36,3.68l-10.95,22.1c-.61,1.41-2.26,2.06-3.68,1.45-.68-.29-1.21-.84-1.49-1.54-.28-.7-.27-1.46.02-2.14l9.27-21.53c.08-.19.13-.39.16-.59.53-4.16.48-8.35.42-12.41-.04-3.12-.09-6.35.15-9.48.25-3.32.83-6.66,1.35-9.6.17-.98.35-1.95.56-2.92.19-.87-.15-1.76-.88-2.27-.38-.27-.83-.4-1.27-.4-.4,0-.81.11-1.16.33l-.64.39c-.99.59-1.7,1.02-2.82,2.32l-10.36,11.96c-2.24,2.47-3.53,1.85-3.95,1.65-1.21-.58-1.83-1.94-1.49-3.22,1.12-1.92,3.51-4.69,5.44-6.94.73-.85,1.41-1.64,1.98-2.33.2-.24.49-.6.83-1.02,3.36-4.17,5.42-6.51,6.07-6.92,1.33-.62,2.89-1.46,4.53-2.35,4.81-2.6,11.39-6.16,14.82-5.35,3.14.73,7.57,4.48,10.5,6.95.46.39.89.75,1.3,1.09.62.51,1.46.65,2.21.36,1.6-.63,3.21-1.25,4.82-1.87,3.48-1.35,7.08-2.74,10.59-4.18,1.42-.58,3.06.1,3.64,1.52.28.69.28,1.45,0,2.13h0ZM25.62,130.34H2.2c-1.22,0-2.2.99-2.2,2.2v15.25c0,1.22.99,2.2,2.2,2.2h23.42c1.22,0,2.2-.99,2.2-2.2v-15.25c0-1.22-.99-2.2-2.2-2.2Zm-2.2,15.25H4.4v-10.85h19.02v10.85Zm38.16-25.97h-23.42c-1.22,0-2.2.99-2.2,2.2v25.97c0,1.22.99,2.2,2.2,2.2h23.42c1.22,0,2.2-.99,2.2-2.2v-25.97c0-1.22-.99-2.2-2.2-2.2Zm-2.2,25.97h-19.02v-21.57h19.02v21.57Zm38.16-36.53h-23.42c-1.22,0-2.2.99-2.2,2.2v36.53c0,1.22.99,2.2,2.2,2.2h23.42c1.22,0,2.2-.99,2.2-2.2v-36.53c0-1.22-.99-2.2-2.2-2.2h0Zm-2.2,36.53h-19.02v-32.12h19.02v32.12Zm38.16-56.1h-23.42c-1.22,0-2.2.99-2.2,2.2v56.1c0,1.22.99,2.2,2.2,2.2h23.42c1.22,0,2.2-.99,2.2-2.2v-56.1c0-1.22-.99-2.2-2.2-2.2h0Zm-2.2,56.1h-19.02v-51.7h19.02v51.7Z"/>
  </g>
</svg>