<?xml version="1.0" encoding="UTF-8"?>
<svg id="_Шар_2" data-name="Шар 2" xmlns="http://www.w3.org/2000/svg" viewBox="0 0 118.09 150">
  <defs>
    <style>
      .cls-1 {
        fill: #fff;
      }
    </style>
  </defs>
  <g id="Layer_1" data-name="Layer 1">
    <g>
      <path class="cls-1" d="m58.53,52.87c-6.69,0-12.14,5.45-12.14,12.14s5.45,12.14,12.14,12.14,12.14-5.45,12.14-12.14c0-6.69-5.45-12.14-12.14-12.14Zm0,19.89c-4.27,0-7.75-3.47-7.75-7.75s3.48-7.75,7.75-7.75,7.75,3.48,7.75,7.75c0,4.27-3.47,7.75-7.75,7.75Z"/>
      <path class="cls-1" d="m115.87,142.55c-14.93-11.48-26.72-33.31-34.11-63.16,13.89-20.02,13.35-19.01,13.37-21.16.04-4.06-3.94-7.32-8.36-5.65-1.57.58-1.65.61-8.52,10.59-1.55-8.67-2.51-16.36-3.08-22.06h14.1c2.1,0,3.98-1.26,4.79-3.2.8-1.94.36-4.16-1.12-5.65l-13.04-13.03c-.86-.86-2.25-.86-3.11,0-.86.86-.86,2.25,0,3.11,14.11,14.11,13.48,13.22,13.21,13.89-.12.3-.41.49-.73.49h-16.52c-1.29,0-2.31,1.11-2.19,2.4.61,6.77,1.83,17.26,4.17,29.17-2.1,3.05-3.88,5.63-6.35,9.2-.98,1.3-2.76,2.27-4.99,2.27-10.62,0-10.29.05-11.28-.16-2.02-.44-3.09-1.65-3.44-2.11l-6.35-9.19c2.34-11.91,3.56-22.41,4.17-29.18.12-1.29-.9-2.4-2.19-2.4-17.71,0-16.96.2-17.25-.49-.29-.71-1.95,1.27,30.92-31.6.29-.29.82-.29,1.11,0l10.46,10.46c.86.86,2.25.86,3.11,0,.86-.86.86-2.25,0-3.11L62.19,1.52c-2.03-2.02-5.3-2.03-7.33,0l-30.74,30.75c-3.26,3.26-.95,8.85,3.66,8.85h14.1c-.57,5.71-1.53,13.42-3.08,22.1l-5.87-8.49c-1.89-2.74-5.65-3.43-8.4-1.53-2.75,1.9-3.43,5.66-1.53,8.4l12.3,17.78c-11.93,48.22-30.76,59.69-33.22,62.51-3.53,3.68-2.66,8.08,3.34,8.08h18.7c1.21,0,2.2-.98,2.2-2.2s-.98-2.2-2.2-2.2c-20.19,0-18.94.01-19.36-.03,1.68-2.41,21.25-13.96,33.83-61.31l3.66,5.3c.3.51,2.9,5.15,2.9,10.3,0,47.9-.04,45.06.07,45.73h-10.86c-1.21,0-2.2.98-2.2,2.2s.98,2.2,2.2,2.2c16.34,0,15.19.02,15.51-.05.74.12,16.56.11,17.28,0,.33.07-2.42.04,45.82.04.99,0,4.02,0,4.91-2.37.73-1.93-.75-4.07-2.03-5.04Zm-48.41-42.78v44.67c0,.64-.52,1.16-1.15,1.16h-5.58v-29.17c0-1.21-.98-2.2-2.2-2.2s-2.2.98-2.2,2.2v29.17h-5.59c-.64,0-1.15-.52-1.15-1.16v-44.67c0-5.47-2.52-11.1-3.63-12.7-20.84-30.13-19.79-28.24-19.62-29.2.26-1.44,2.14-1.84,2.97-.64.03.04,15.78,22.8,15.8,22.84.71.96,3.41,4.08,8.55,4.08h9.73c3.9,0,7.08-1.95,8.58-4.13,11.52-16.65,15.41-22.5,16.26-23.29,1.29-.48,2.47,0,2.5,1.72,0,0,0,0,0,0-.54,1.23-5.26,7.83-19.64,28.62-.36.52-3.63,6.21-3.63,12.7Zm4.35,45.8c.11-.66.08,2.17.08-45.73,0-5.16,2.62-9.81,2.9-10.3,1.31-1.89,2.53-3.65,3.67-5.3,5.88,22.11,16.12,47.1,34.13,61.33h-40.78Z"/>
    </g>
  </g>
</svg>