<?xml version="1.0" encoding="UTF-8"?>
<svg id="_Шар_2" data-name="Шар 2" xmlns="http://www.w3.org/2000/svg" viewBox="0 0 137.9 154.12">
  <defs>
    <style>
      .cls-1 {
        fill: #fff;
      }
    </style>
  </defs>
  <g id="Layer_1" data-name="Layer 1">
    <g>
      <path class="cls-1" d="m31.32,114.73c-3.58,2.14-6.9,4.08-10.15,6.14-.41.26-.64,1.08-.64,1.64-.04,9.13-.03,18.26-.03,27.39,0,3.27-.95,4.22-4.21,4.22-4.16,0-8.33.01-12.49,0-2.67,0-3.77-1.1-3.78-3.74-.01-4.71,0-9.43,0-14.14,0-.1,0-.2,0-.3.06-2.08,1.24-3.44,2.99-3.46,1.75-.02,3.01,1.35,3.03,3.41.03,3.46,0,6.92.01,10.38,0,.54,0,1.09,0,1.83h8.42v-1.76c0-7.97.05-15.95-.02-23.92-.03-3.18,1.23-5.43,3.99-7.02,4.55-2.63,9.05-5.37,13.55-8.09,1.22-.73,2.44-1.23,3.81-.48,1.38.76,1.58,2.05,1.57,3.48-.03,4.16-.01,8.33-.01,12.49,0,.48,0,.96,0,1.67,2.75-1.1,5.31-2.1,7.83-3.17.29-.12.56-.68.56-1.03.03-6.07.17-12.14-.05-18.2-.23-6.3-7.13-9.68-12.49-6.21-4.29,2.78-8.43,5.79-12.73,8.55-1.07.69-2.48,1.09-3.76,1.14-3.49.15-7,.05-10.67.05,0,1.73.02,3.32,0,4.91-.03,2.17-1.24,3.58-3.03,3.56-1.79-.02-2.99-1.42-2.99-3.61-.01-11.74-.07-23.47.02-35.21.04-5.85,2.95-10.05,8.28-12.81-.64-.46-1.24-.85-1.79-1.29-5-3.92-6.25-9.2-5.43-15.2.95-6.94,7.12-12.3,14.04-12.19,7.66.12,13.74,6.02,14.03,13.84.09,2.47-.33,4.95-.52,7.49.15-.04.56-.12.95-.26,5.66-2.01,11.3-4.09,16.99-6.02,1.53-.52,3.22-.53,4.82-.85.41-.08.85-.34,1.15-.65,1.14-1.17,2.09-2.58,3.36-3.57,5.87-4.54,11.83-8.96,17.76-13.42.43-.33.85-.67,1.49-1.17-3.72-1.25-6.41-3.6-8.57-6.52-3.15-4.24-3.73-8.98-1.76-13.81,1.95-4.78,5.66-7.59,10.79-8.6,9.02-1.77,18.65,7.42,17.74,16.4-.05.5-.06,1-.09,1.68.55,0,1.08.02,1.6,0,3.82-.2,7.4.65,10.58,2.77,7.22,4.81,14.46,9.59,21.53,14.6,7.2,5.1,10.83,12.31,10.86,21.08.1,31.25.04,62.49.03,93.74,0,2.6-1.18,3.62-4.05,3.62-29.04,0-58.08,0-87.12,0-3.66,0-7.32,0-10.98,0-3.5,0-4.4-.88-4.4-4.33,0-11.03,0-22.07,0-33.1v-1.95Zm100.46-20.82c-9.5,0-18.82-.02-28.15.04-.82,0-1.77.34-2.42.84-9.11,6.98-18.18,14.02-27.28,21.02-.9.69-1.92,1.28-2.97,1.7-6.4,2.6-12.82,5.15-19.23,7.71-4.78,1.91-9.56,3.83-14.28,5.71v17.04h94.33v-54.06Zm-24.63-6.03c0-8.1.08-15.97-.03-23.84-.06-3.85-1.9-6.88-5.12-9.04-3.33-2.23-6.66-4.46-9.95-6.75-.8-.56-1.42-.59-2.31-.22-8.51,3.52-17.02,7.04-25.58,10.44-1.53.61-3.29.62-4.93.97-.41.09-.84.34-1.14.64-1.23,1.22-2.25,2.72-3.64,3.7-7.71,5.41-15.51,10.7-23.26,16.05-.42.29-1,.75-1.01,1.15-.08,3.13-.05,6.26-.05,9.56.61-.3,1-.5,1.4-.69,4.16-1.95,8.36-2,12.45.09,5.28,2.7,7.75,7.21,7.81,13.05.05,5.16.01,10.31.01,15.64.59-.22,1.06-.37,1.51-.55,4.98-1.98,9.96-3.95,14.92-5.97.82-.33,1.62-.79,2.33-1.33,9.33-7.18,18.66-14.38,27.96-21.61,1.17-.91,2.37-1.4,3.86-1.32,1.54.08,3.09.02,4.78.02ZM6.05,99.41c6.09.39,12.04,1.01,16.73-3.8.1-.11.29-.15.36-.26.33-.59.9-1.2.91-1.81.08-4.51.1-9.03.01-13.54-.04-1.86.65-3.08,2.17-4.12,8.37-5.69,16.71-11.44,25.05-17.18,1.59-1.09,2.02-2.27,1.35-3.51-.64-1.19-1.82-1.5-3.54-.89-4.1,1.46-8.2,2.94-12.3,4.4-8.39,3-16.79,5.98-25.17,9-3.67,1.32-5.54,4.01-5.57,7.88-.02,1.96,0,3.91,0,5.87,0,5.97,0,11.93,0,17.98Zm113.17-61.76c-.58-.42-.98-.71-1.39-.99-4.73-3.2-9.47-6.4-14.2-9.6-5.74-3.87-10.64-3.74-16.19.44-9.29,7-18.58,14-27.87,21-.36.27-.73.54-1.05.85-.91.89-1.07,1.94-.41,3,.62,1.01,1.59,1.32,2.74.95.43-.14.85-.29,1.27-.46,8.81-3.6,17.64-7.14,26.4-10.86,2.26-.96,3.99-.84,5.97.61,3.26,2.4,6.69,4.56,10.06,6.84,4.9-3.94,9.7-7.8,14.67-11.8Zm.59,50.17c0-7.55,0-14.92,0-22.29,0-.55-.03-1.11.05-1.65.22-1.57,1.47-2.7,2.94-2.72,1.46-.02,2.74,1.11,2.98,2.67.08.49.06,1,.06,1.5,0,6.97,0,13.95,0,20.92,0,.53,0,1.05,0,1.56h5.86c.06-.17.13-.26.13-.35,0-10.68.15-21.37-.09-32.05-.13-5.72-2.84-10.43-7.33-14.18-2.54,2.04-5.04,4.05-7.53,6.06-2.53,2.03-5.05,4.07-7.66,6.16,3.48,4.12,4.11,8.9,4.01,13.94-.12,6.27-.03,12.54-.03,18.81,0,.53,0,1.06,0,1.62h6.61ZM87.38,15.65c-.08-4.09-2.46-6.6-5.53-8.51-2.63-1.64-5.47-1.5-8.12.09-2.65,1.59-3.95,4.01-3.94,7.12.01,3.35,1.99,5.57,4.38,7.49,2.61,2.1,5.57,2.43,8.58.99,3.02-1.44,4.51-3.98,4.61-7.19ZM23.16,48.89c0-.6.06-1.21-.01-1.8-.4-3.15-2.07-5.43-4.98-6.64-2.91-1.21-5.73-.8-8.19,1.21-3.33,2.71-3.54,6.39-2.72,10.16.9,4.17,4.86,6.68,9.07,6.05,4.26-.64,6.89-4.06,6.83-8.98Z"/>
      <path class="cls-1" d="m6.03,123.77c-.04,1.58-1.49,2.97-3.05,2.93-1.58-.04-2.97-1.49-2.93-3.05.04-1.58,1.49-2.97,3.05-2.93,1.58.04,2.97,1.49,2.93,3.05Z"/>
      <path class="cls-1" d="m117.41,112.05c-1.37,0-2.56.04-3.75,0-1.95-.07-3.16-1.18-3.21-2.87-.06-1.71,1.05-2.99,2.98-3.09,2.3-.13,4.61-.13,6.91-.01,2.02.1,3.07,1.3,3.09,3.35.04,4.61.03,9.22,0,13.84-.01,2.06-1.25,3.44-2.99,3.45-1.75,0-3-1.36-3.02-3.42-.03-3.66,0-7.31,0-11.23Z"/>
      <path class="cls-1" d="m120.48,132.46c1.57.04,2.95,1.45,2.93,3.01-.01,1.61-1.53,3.05-3.12,2.97-1.57-.08-2.92-1.54-2.86-3.08.06-1.57,1.49-2.93,3.05-2.9Z"/>
    </g>
  </g>
</svg>