<?xml version="1.0" encoding="UTF-8"?>
<svg id="_Шар_2" data-name="Шар 2" xmlns="http://www.w3.org/2000/svg" xmlns:xlink="http://www.w3.org/1999/xlink" viewBox="0 0 83.3 85.09">
  <defs>
    <style>
      .cls-1 {
        fill: url(#linear-gradient-2);
      }

      .cls-2 {
        fill: url(#linear-gradient-3);
      }

      .cls-3 {
        fill: url(#linear-gradient);
      }

      .cls-4 {
        fill: url(#linear-gradient-4);
      }
    </style>
    <linearGradient id="linear-gradient" x1="0" y1="42.54" x2="70.06" y2="42.54" gradientUnits="userSpaceOnUse">
      <stop offset="0" stop-color="#9d62f5"/>
      <stop offset="1" stop-color="#6049cd"/>
    </linearGradient>
    <linearGradient id="linear-gradient-2" x1="61.23" y1="15.86" x2="77.78" y2="15.86" xlink:href="#linear-gradient"/>
    <linearGradient id="linear-gradient-3" x1=".55" y1="43.44" x2="17.1" y2="43.44" xlink:href="#linear-gradient"/>
    <linearGradient id="linear-gradient-4" x1="66.75" y1="43.44" x2="83.3" y2="43.44" xlink:href="#linear-gradient"/>
  </defs>
  <g id="Layer_1" data-name="Layer 1">
    <g>
      <path class="cls-3" d="m0,79.43l1.1,2.48,39.58-16.41,6.9.83,2.48,7.58-3.31,3.17c-1.24,1.1-1.65,2.9-.96,4.55l1.38,3.45,22.89-8.96-1.24-3.31c-.55-1.66-2.07-2.62-3.86-2.62h-4.55l-2.48-5.93,6.07-3.03c1.93-.97,2.76-3.17,2.07-5.1l-7.86-21.1c-.83-2.21-3.17-3.17-5.38-2.48,0,0-.14,0-.14.14l-5.79,2.48-.83-2.07,3.17-3.72c2.21-2.48,3.59-5.52,4-8.83l4-4.83c2.62-3.03,2.07-7.58-.97-10.21-.55-.41-1.1-.83-1.65-1.1-1.52-.69-3.03-.83-4.69-.41l-.41-1.24c-.69-2.21-3.17-3.31-5.24-2.48L15.17,10.76c-2.21.83-3.31,3.17-2.48,5.24v.14l.69,1.79c-3.59,1.66-5.24,5.79-4,9.38.97,2.76,3.45,4.69,6.34,5.1l6.48.69c2.62,1.93,5.79,3.17,8.96,3.45l4.55.41.83,2.07c-.97.55-1.66,1.52-1.93,2.76l-.97,4.69L0,60.13l.97,2.62,19.31-7.72,4.69,14.07L0,79.43Zm66.06-5.79l.28.83-17.65,7.03-.41-.83c-.14-.55,0-1.1.28-1.52l4.69-4.41,5.93-1.93h5.52c.69,0,1.1.28,1.38.83Zm-8.69-3.31l-4.96,1.66-1.79-5.24c.83.14,1.52,0,2.21-.41l2.34-1.1,2.21,5.1Zm-3.72-35.58c.69-.28,1.52,0,1.79.69l1.1,2.9-6.76,2.21.83,2.62,6.76-2.21,1.65,4.41-6.48,2.21.83,2.62,6.62-2.21,1.66,4.41-6.34,2.07.83,2.62,6.48-2.21.69,1.79c.28.69,0,1.38-.69,1.66l-10.89,5.38c-.28.14-.55.14-.83.14l-9.38-1.1-5.1-15.31.97-5.1c.14-.41.41-.83.83-.97l15.45-6.62Zm-.14-27.86c2.21.97,3.31,3.59,2.34,5.93-.14.41-.41.69-.69,1.1l-1.66,2.07c-.14-1.38-.41-2.62-.83-4l-1.79-5.38c.97-.14,1.79,0,2.62.28ZM12.14,26.62c-.83-2.34.14-4.83,2.34-5.93l1.93,4.69c.69,1.65,1.66,3.31,2.76,4.69l-2.9-.28c-1.93-.14-3.59-1.38-4.14-3.17Zm19.58,7.31c-5.65-.55-10.62-4.14-12.69-9.52l-3.59-9.1c-.28-.69,0-1.52.69-1.79L45.23,3.03c.41-.14.69-.14,1.1,0,.28.14.55.41.69.83l3.03,9.1c1.66,5.1.55,10.62-2.9,14.62l-4.28,4.96,1.24,3.31-4.96,2.07-1.38-3.45-6.07-.55Zm-8.83,20l3.17-1.24,3.45,10.48,2.62-.83-3.59-10.76,5.52-2.21,4.69,13.93-11.17,4.69-4.69-14.07Z"/>
      <path class="cls-1" d="m68.13,24.13v1.38h2.76v-1.38c0-3.86,3.03-6.9,6.9-6.9v-2.76c-3.86,0-6.9-3.03-6.9-6.9v-1.38h-2.76v1.38c0,3.86-3.03,6.9-6.9,6.9v2.76c3.86,0,6.9,3.03,6.9,6.9Zm1.38-11.58c.83,1.38,1.93,2.48,3.31,3.31-1.38.83-2.48,1.93-3.31,3.31-.83-1.38-1.93-2.48-3.31-3.31,1.38-.83,2.48-1.93,3.31-3.31Z"/>
      <path class="cls-2" d="m7.45,51.71v1.38h2.76v-1.38c0-3.86,3.03-6.9,6.9-6.9v-2.76c-3.86,0-6.9-3.03-6.9-6.9v-1.38h-2.76v1.38c0,3.86-3.03,6.9-6.9,6.9v2.76c3.86,0,6.9,3.03,6.9,6.9Zm1.38-11.58c.83,1.38,1.93,2.48,3.31,3.31-1.38.83-2.48,1.93-3.31,3.31-.83-1.38-1.93-2.48-3.31-3.31,1.38-.83,2.48-1.93,3.31-3.31Z"/>
      <path class="cls-4" d="m76.4,35.16v-1.38h-2.76v1.38c0,3.86-3.03,6.9-6.9,6.9v2.76c3.86,0,6.9,3.03,6.9,6.9v1.38h2.76v-1.38c0-3.86,3.03-6.9,6.9-6.9v-2.76c-3.86,0-6.9-3.03-6.9-6.9Zm-1.38,11.58c-.83-1.38-1.93-2.48-3.31-3.31,1.38-.83,2.48-1.93,3.31-3.31.83,1.38,1.93,2.48,3.31,3.31-1.38.83-2.48,1.93-3.31,3.31Z"/>
    </g>
  </g>
</svg>