<?xml version="1.0" encoding="UTF-8"?>
<svg id="_Шар_2" data-name="Шар 2" xmlns="http://www.w3.org/2000/svg" xmlns:xlink="http://www.w3.org/1999/xlink" viewBox="0 0 90.14 84.51">
  <defs>
    <style>
      .cls-1 {
        fill: url(#linear-gradient-2);
      }

      .cls-2 {
        fill: url(#linear-gradient-6);
      }

      .cls-3 {
        fill: url(#linear-gradient-5);
      }

      .cls-4 {
        fill: url(#linear-gradient-7);
      }

      .cls-5 {
        fill: url(#linear-gradient-3);
      }

      .cls-6 {
        fill: url(#linear-gradient);
      }

      .cls-7 {
        fill: url(#linear-gradient-4);
      }
    </style>
    <linearGradient id="linear-gradient" x1="24.41" y1="21.41" x2="67.23" y2="21.41" gradientUnits="userSpaceOnUse">
      <stop offset="0" stop-color="#9d62f5"/>
      <stop offset="1" stop-color="#6049cd"/>
    </linearGradient>
    <linearGradient id="linear-gradient-2" x1="38.97" y1="12.23" x2="44.99" y2="12.23" xlink:href="#linear-gradient"/>
    <linearGradient id="linear-gradient-3" x1="46.66" y1="30.59" x2="52.67" y2="30.59" xlink:href="#linear-gradient"/>
    <linearGradient id="linear-gradient-4" x1="46.86" y1="64.88" x2="66.26" y2="64.88" xlink:href="#linear-gradient"/>
    <linearGradient id="linear-gradient-5" x1="70.04" y1="59.24" x2="90.14" y2="59.24" xlink:href="#linear-gradient"/>
    <linearGradient id="linear-gradient-6" x1="23.88" y1="64.88" x2="43.28" y2="64.88" xlink:href="#linear-gradient"/>
    <linearGradient id="linear-gradient-7" x1="0" y1="59.24" x2="20.1" y2="59.24" xlink:href="#linear-gradient"/>
  </defs>
  <g id="Layer_1" data-name="Layer 1">
    <g>
      <path class="cls-6" d="m37.55,1.67c-5.83,2.44-8.58,9.16-6.14,14.99,2.45,5.85,9.19,8.57,14.99,6.14,3.47-1.45,7.53-.41,9.88,2.53.52.65,1.46.76,2.11.24.65-.52.76-1.46.24-2.11-3.17-3.99-8.68-5.4-13.39-3.43-4.3,1.8-9.26-.23-11.06-4.53-1.8-4.3.23-9.26,4.53-11.06,9.42-3.95,20.18.55,24.08,9.87,3.92,9.36-.51,20.16-9.87,24.08-12.11,5.07-25.52-3.87-25.52-16.97,0-.83-.67-1.5-1.5-1.5-.83,0-1.5.67-1.5,1.5,0,2.84.56,5.63,1.67,8.27,4.58,10.94,17.17,16.02,28.02,11.48,10.89-4.56,16.04-17.13,11.48-28.02C61.02,2.29,48.49-2.92,37.55,1.67h0Z"/>
      <path class="cls-1" d="m40.82,9.46c-1.53.64-2.25,2.4-1.61,3.93,1.03,2.46,4.54,2.45,5.55-.02,1.01-2.46-1.46-4.95-3.94-3.91Z"/>
      <path class="cls-5" d="m49.67,33.6c1.17,0,2.29-.69,2.78-1.87.63-1.54-.1-3.29-1.64-3.92-1.54-.63-3.29.1-3.92,1.64-.81,1.98.65,4.14,2.78,4.14Z"/>
      <path class="cls-7" d="m62.49,45.98c-1.5-.81-3.89-1.19-6.09.17-2.22,1.37-4.79,4.89-4.59,13.83-4.99,6.78-6.28,15.31-3.53,23.51.21.63.8,1.02,1.42,1.02,1.03,0,1.75-1.01,1.42-1.98-2.48-7.41-1.25-15.12,3.39-21.15.21-.28.32-.62.31-.97-.28-8.31,1.86-10.9,3.16-11.71,1.4-.87,2.71-.28,3.08-.08,2.94,1.59,2.91,9.79-.08,20.9l-.06.22c-.21.8.27,1.62,1.07,1.84s1.62-.27,1.84-1.07c1.85-6.94,4.97-21.12-1.34-24.53h0Z"/>
      <path class="cls-3" d="m83.92,33.97c-3.43,0-6.22,2.79-6.22,6.22,0,5.94-2.2,11.63-6.21,16.03-.56.61-.51,1.56.1,2.12.61.56,1.56.51,2.12-.1,4.51-4.95,6.99-11.36,6.99-18.05,0-1.77,1.44-3.22,3.22-3.22s3.22,1.44,3.22,3.22v5.24c0,6.95-2.57,13.62-7.23,18.77l-1.42,1.57c-4.31,4.77-7.22,10.63-8.42,16.95-.15.82.38,1.6,1.2,1.76.81.15,1.6-.38,1.76-1.2,1.09-5.77,3.75-11.13,7.7-15.49l1.42-1.57c5.16-5.71,8.01-13.09,8.01-20.79v-5.24c0-3.43-2.79-6.22-6.22-6.22h0Z"/>
      <path class="cls-2" d="m33.73,46.15c-2.2-1.36-4.59-.98-6.09-.17-6.33,3.41-3.18,17.63-1.34,24.53.21.8,1.03,1.28,1.84,1.07.8-.21,1.28-1.03,1.07-1.84l-.06-.22c-2.99-11.11-3.02-19.31-.08-20.9.37-.2,1.68-.78,3.08.08,1.3.81,3.44,3.4,3.16,11.71-.01.35.1.69.31.97,4.64,6.04,5.87,13.75,3.39,21.15-.33.97.4,1.98,1.42,1.98.63,0,1.21-.4,1.42-1.02,2.75-8.19,1.46-16.73-3.53-23.51.2-8.94-2.38-12.45-4.59-13.83h0Z"/>
      <path class="cls-4" d="m11.65,65.78l-1.42-1.57c-4.66-5.16-7.23-11.82-7.23-18.77v-5.24c0-1.77,1.44-3.22,3.22-3.22s3.22,1.44,3.22,3.22c0,6.03,2.07,11.96,5.82,16.68.52.65,1.46.76,2.11.24.65-.52.76-1.46.24-2.11-3.33-4.19-5.17-9.45-5.17-14.81,0-3.43-2.79-6.22-6.22-6.22s-6.22,2.79-6.22,6.22v5.24c0,7.7,2.84,15.08,8.01,20.79l1.42,1.57c3.94,4.36,6.6,9.72,7.7,15.49.14.72.77,1.22,1.47,1.22.95,0,1.65-.86,1.48-1.78-1.19-6.32-4.11-12.18-8.42-16.95h0Z"/>
    </g>
  </g>
</svg>