<?xml version="1.0" encoding="UTF-8"?>
<svg id="_Шар_2" data-name="Шар 2" xmlns="http://www.w3.org/2000/svg" viewBox="0 0 96.02 102.57">
  <defs>
    <style>
      .cls-1 {
        fill: #fff;
      }
    </style>
  </defs>
  <g id="Layer_1" data-name="Layer 1">
    <path class="cls-1" d="m87.09,69.76l-1.3-.72,1.02-1.08c1.97-2.08,3.06-4.8,3.06-7.65,0-.16,0-.32-.01-.47l-.04-.85.81-.28c3.21-1.13,5.37-4.19,5.37-7.61v-18.44c0-7.84-6.37-14.21-14.19-14.21h-3.66l1-1.73c.98-1.69,1.5-3.61,1.5-5.57,0-6.14-5-11.14-11.14-11.14s-11.14,5-11.14,11.14c0,1.95.52,3.88,1.5,5.57l1,1.73h-28.24c-4.45,0-8.06,3.62-8.06,8.06s3.62,8.06,8.06,8.06h22.66v17.1l-1.73-1.01c-1.69-.98-3.62-1.5-5.57-1.5-6.14,0-11.14,5-11.14,11.14,0,2.86,1.09,5.57,3.06,7.65l1.03,1.08-1.3.72c-2.42,1.34-4.51,3.27-6.05,5.58l-.96,1.45-.96-1.45c-1.54-2.31-3.63-4.24-6.05-5.58l-1.3-.72,1.03-1.08c1.97-2.08,3.06-4.8,3.06-7.65,0-6.14-5-11.14-11.14-11.14s-11.14,5-11.14,11.14c0,2.86,1.09,5.57,3.06,7.65l1.03,1.08-1.3.72c-5.51,3.06-8.93,8.85-8.93,15.12v15.77c0,1.06.86,1.92,1.92,1.92s1.92-.86,1.92-1.92v-10.78h88.34v10.78c0,1.06.86,1.92,1.92,1.92s1.92-.86,1.92-1.92v-15.77c0-6.27-3.42-12.07-8.93-15.12ZM9.98,60.3c0-4.02,3.27-7.3,7.3-7.3s7.3,3.27,7.3,7.3-3.27,7.3-7.3,7.3-7.3-3.27-7.3-7.3Zm20.74,25.73H3.84v-1.15c0-7.41,6.03-13.44,13.44-13.44s13.44,6.03,13.44,13.44v1.15Zm48.01-18.44c-4.02,0-7.3-3.27-7.3-7.3s3.27-7.3,7.3-7.3,7.3,3.27,7.3,7.3-3.27,7.3-7.3,7.3ZM69.52,3.84c4.02,0,7.3,3.27,7.3,7.3s-3.27,7.3-7.3,7.3-7.3-3.27-7.3-7.3,3.27-7.3,7.3-7.3Zm-28.81,56.46c0-4.02,3.27-7.3,7.3-7.3s7.3,3.27,7.3,7.3-3.27,7.3-7.3,7.3-7.3-3.27-7.3-7.3Zm20.74,25.73h-26.89v-1.15c0-7.41,6.03-13.44,13.44-13.44s13.45,6.03,13.45,13.44v1.15Zm1.92-9.25l-.96-1.45c-1.54-2.31-3.63-4.24-6.05-5.58l-1.3-.72,1.02-1.08c1.94-2.04,3.02-4.73,3.04-7.57v-27.74c0-1.06-.85-1.92-1.89-1.92h-24.58c-2.33,0-4.23-1.9-4.23-4.23s1.9-4.23,4.23-4.23h49.16c5.72,0,10.37,4.65,10.37,10.37v18.44c0,1.66-.98,3.17-2.5,3.85l-.93.42-.53-.86c-.96-1.56-2.32-2.88-3.95-3.83l-.57-.33v-17.68c0-1.06-.85-1.92-1.9-1.92s-1.92.86-1.92,1.92v16.52h-1.15c-6.14,0-11.14,5-11.14,11.14,0,2.85,1.09,5.57,3.06,7.65l1.02,1.08-1.3.72c-2.42,1.34-4.51,3.27-6.05,5.58l-.96,1.45Zm28.81,9.25h-26.89v-1.15c0-7.41,6.03-13.44,13.45-13.44s13.44,6.03,13.44,13.44v1.15Z"/>
  </g>
</svg>