<svg width="16" height="16" viewBox="0 0 16 16" fill="none" xmlns="http://www.w3.org/2000/svg">
<path d="M2.69676 13.3032C1.99928 12.6076 1.44616 11.7809 1.06917 10.8708C0.692176 9.96073 0.49875 8.9851 0.500006 8C0.500006 3.85775 3.85776 0.5 8.00001 0.5C12.1423 0.5 15.5 3.85775 15.5 8C15.5 12.1423 12.1423 15.5 8.00001 15.5H0.500006L2.69676 13.3032ZM5.00001 8.75C5.00001 9.54565 5.31608 10.3087 5.87869 10.8713C6.44129 11.4339 7.20436 11.75 8.00001 11.75C8.79566 11.75 9.55872 11.4339 10.1213 10.8713C10.6839 10.3087 11 9.54565 11 8.75H5.00001Z" fill="#efab49"/>
</svg>