<?xml version="1.0" encoding="utf-8"?>
<!-- Generator: Adobe Illustrator 27.7.0, SVG Export Plug-In . SVG Version: 6.00 Build 0)  -->
<svg version="1.1" id="layer" xmlns="http://www.w3.org/2000/svg" xmlns:xlink="http://www.w3.org/1999/xlink" x="0px" y="0px"
	 viewBox="0 0 48 36" style="enable-background:new 0 0 48 36;" xml:space="preserve">
<style type="text/css">
	.st0{fill:#F4B251;}
</style>
<g>
	<path class="st0" d="M4.4,32.9C1.7,30,0.2,26.8,0.2,21.5C0.2,12.4,6.7,4.1,16.1,0l2.3,3.6C9.7,8.4,7.9,14.5,7.3,18.4
		c1.4-0.7,3.3-1,5.1-0.8c4.7,0.4,8.5,4.3,8.5,9.2c0,5.1-4.1,9.2-9.2,9.2C8.8,36,6.1,34.7,4.4,32.9z M30.6,32.9
		c-2.7-2.9-4.2-6.1-4.2-11.3c0-9.2,6.5-17.4,15.8-21.5l2.3,3.6c-8.8,4.7-10.5,10.9-11.1,14.8c1.4-0.7,3.3-1,5.1-0.8
		c4.7,0.4,8.5,4.3,8.5,9.2c0,5.1-4.1,9.2-9.2,9.2C35,36,32.3,34.7,30.6,32.9z"/>
</g>
</svg>
